#!OML:ASF H:\Martial Arts Walks\Project 1\Capture day 1\Session 1\male.ASF
:FULLY-SPECIFIED
:DEGREES
1453
root -4.8649 10.3936 14.966 -152.851 81.626 -160.727
lowerback 18.9474 6.91967 0.460389
upperback -3.22187 9.14805 -1.6855
thorax -13.8822 4.07503 -4.91729
lowerneck -0.779873 12.5476 4.21939
upperneck 6.84733 16.9619 -2.90841
head 2.99639 8.48297 -1.06198
rclavicle -6.53505e-014 1.5704e-014
rhumerus -25.3335 53.7161 -79.3643
rradius 107.934
rwrist 3.87048
rhand -8.86104 -25.3438
rfingers 7.12502
rthumb 17.0802 -54.613
lclavicle -6.53505e-014 1.5704e-014
lhumerus -10.307 6.21883 65.1704
lradius 109.334
lwrist 39.5452
lhand -28.1264 13.8064
lfingers 7.12502
lthumb -1.50798 43.7809
rfemur -54.7202 -47.8364 -5.44131
rtibia 106.509
rfoot -36.9899 -2.71084
rtoes -35.7552
lfemur -78.1468 39.4701 -0.485254
ltibia 105.185
lfoot -34.6839 -12.3588
ltoes -18.2563
1454
root -4.8732 10.3707 14.9641 -152.596 81.5285 -160.492
lowerback 19.0262 6.89849 0.600587
upperback -3.22724 9.15351 -1.68228
thorax -13.9122 4.06413 -5.00275
lowerneck -0.836469 12.5432 4.21535
upperneck 6.82102 16.9494 -2.88273
head 2.99389 8.4762 -1.05124
rclavicle 9.0447e-014 -6.16232e-015
rhumerus -25.1206 53.7047 -79.104
rradius 107.943
rwrist 3.90636
rhand -9.26116 -25.5868
rfingers 7.12502
rthumb 16.695 -54.8888
lclavicle 9.0447e-014 -6.16232e-015
lhumerus -10.2423 6.16975 65.1999
lradius 109.264
lwrist 39.6153
lhand -28.096 13.8885
lfingers 7.12502
lthumb -1.47859 43.8631
rfemur -54.8179 -48.0058 -5.44378
rtibia 106.688
rfoot -37.0344 -2.48704
rtoes -35.6394
lfemur -78.4809 39.5325 -0.522481
ltibia 105.382
lfoot -34.7151 -12.3881
ltoes -18.3424
1455
root -4.88104 10.351 14.9637 -152.173 81.4347 -160.061
lowerback 19.1078 6.84425 0.716994
upperback -3.21559 9.11416 -1.63728
thorax -13.9384 4.03678 -5.01474
lowerneck -0.878911 12.5793 4.16042
upperneck 6.80096 16.9947 -2.86823
head 2.98941 8.49686 -1.03451
rclavicle 5.93869e-014 5.96354e-015
rhumerus -24.7859 53.8083 -78.9298
rradius 107.788
rwrist 3.93919
rhand -9.37137 -25.9924
rfingers 7.12502
rthumb 16.5889 -55.3034
lclavicle 5.93869e-014 5.96354e-015
lhumerus -10.2186 6.20876 65.1718
lradius 109.227
lwrist 39.7213
lhand -28.226 13.9605
lfingers 7.12502
lthumb -1.6042 43.9342
rfemur -54.892 -48.1513 -5.3876
rtibia 106.844
rfoot -37.0767 -2.51209
rtoes -35.7524
lfemur -78.7282 39.5919 -0.474523
ltibia 105.548
lfoot -34.677 -12.5859
ltoes -18.1311
1456
root -4.88857 10.3318 14.9628 -151.743 81.3292 -159.618
lowerback 19.2011 6.82522 0.854126
upperback -3.20931 9.12648 -1.59862
thorax -13.9698 4.03076 -5.06221
lowerneck -0.909661 12.5672 4.17772
upperneck 6.77354 16.9771 -2.90421
head 2.99043 8.48688 -1.04764
rclavicle -4.96962e-016 -2.5842e-015
rhumerus -24.6299 53.7925 -78.5897
rradius 107.925
rwrist 3.8324
rhand -9.34145 -25.6829
rfingers 7.12502
rthumb 16.6177 -54.9915
lclavicle -4.96962e-016 -2.5842e-015
lhumerus -10.1576 6.13674 65.1935
lradius 109.177
lwrist 39.8108
lhand -28.2943 14.0483
lfingers 7.12502
lthumb -1.67014 44.0215
rfemur -54.9461 -48.3059 -5.34318
rtibia 106.994
rfoot -37.147 -2.66715
rtoes -35.9643
lfemur -78.9906 39.6782 -0.437058
ltibia 105.709
lfoot -34.664 -12.7838
ltoes -17.9932
1457
root -4.89571 10.3137 14.9636 -151.684 81.2498 -159.576
lowerback 19.2741 6.79027 0.899593
upperback -3.2136 9.09431 -1.57158
thorax -14.0177 4.01032 -5.05852
lowerneck -0.913045 12.575 4.21393
upperneck 6.73487 16.9869 -2.94839
head 2.98654 8.49115 -1.06702
rclavicle 4.09993e-014 -9.54166e-015
rhumerus -24.3766 53.8424 -78.4499
rradius 107.823
rwrist 3.80363
rhand -9.3587 -25.8847
rfingers 7.12502
rthumb 16.6011 -55.1947
lclavicle 4.09993e-014 -9.54166e-015
lhumerus -10.1631 6.14659 65.1844
lradius 109.173
lwrist 39.904
lhand -28.2865 14.0857
lfingers 7.12502
lthumb -1.66264 44.059
rfemur -55.0251 -48.4693 -5.34825
rtibia 107.133
rfoot -37.2047 -2.68568
rtoes -36.0133
lfemur -79.2618 39.7345 -0.496613
ltibia 105.847
lfoot -34.6856 -12.7986
ltoes -18.0953
